<?xml version="1.0" encoding="UTF-8"?>
<!DOCTYPE svg PUBLIC "-//W3C//DTD SVG 1.1//EN" "http://www.w3.org/Graphics/SVG/1.1/DTD/svg11.dtd">
<svg xmlns="http://www.w3.org/2000/svg" version="1.1" width="225px" height="225px" style="shape-rendering:geometricPrecision; text-rendering:geometricPrecision; image-rendering:optimizeQuality; fill-rule:evenodd; clip-rule:evenodd" xmlns:xlink="http://www.w3.org/1999/xlink">
<g><path style="opacity:1" fill="#2d0358" d="M 107.5,8.5 C 154.119,8.87797 187.619,29.878 208,71.5C 224.659,117.694 215.159,157.527 179.5,191C 139.419,220.581 97.7525,222.915 54.5,198C 12.9061,166.547 -0.260565,125.714 15,75.5C 32.5224,34.8136 63.3557,12.4803 107.5,8.5 Z"/></g>
<g><path style="opacity:1" fill="#f8f7f9" d="M 53.5,46.5 C 64.6597,44.8255 69.1597,49.4922 67,60.5C 61.6655,66.7792 55.9989,67.1125 50,61.5C 47.3214,55.558 48.4881,50.558 53.5,46.5 Z"/></g>
<g><path style="opacity:1" fill="#fbfafb" d="M 136.5,74.5 C 154.59,72.2851 166.757,79.6185 173,96.5C 173.5,113.83 173.667,131.163 173.5,148.5C 168.5,148.5 163.5,148.5 158.5,148.5C 158.667,132.83 158.5,117.163 158,101.5C 152.652,90.2663 143.985,86.5997 132,90.5C 131.172,85.798 131.338,81.1313 132.5,76.5C 134.026,76.0057 135.359,75.339 136.5,74.5 Z"/></g>
<g><path style="opacity:1" fill="#fbfafb" d="M 104.5,76.5 C 109.5,76.5 114.5,76.5 119.5,76.5C 119.5,100.5 119.5,124.5 119.5,148.5C 114.5,148.5 109.5,148.5 104.5,148.5C 104.5,124.5 104.5,100.5 104.5,76.5 Z"/></g>
<g><path style="opacity:1" fill="#f7f6f9" d="M 50.5,76.5 C 55.8333,76.5 61.1667,76.5 66.5,76.5C 66.0437,93.2367 66.5437,109.903 68,126.5C 73.9017,136.078 82.0684,138.745 92.5,134.5C 93.6616,139.131 93.8283,143.798 93,148.5C 74.0104,154.503 60.3438,148.503 52,130.5C 50.5841,112.542 50.0841,94.5416 50.5,76.5 Z"/></g>
<g><path style="opacity:1" fill="#f4f2f6" d="M 163.5,159.5 C 173.685,159.834 177.519,164.834 175,174.5C 168.176,181.586 162.176,180.919 157,172.5C 155.973,166.554 158.14,162.221 163.5,159.5 Z"/></g>
</svg>
