<?xml version="1.0" standalone="no"?>
<!DOCTYPE svg PUBLIC "-//W3C//DTD SVG 20010904//EN"
 "http://www.w3.org/TR/2001/REC-SVG-20010904/DTD/svg10.dtd">
<svg version="1.0" xmlns="http://www.w3.org/2000/svg"
 width="225.000000pt" height="225.000000pt" viewBox="0 0 225.000000 225.000000"
 preserveAspectRatio="xMidYMid meet">

<g transform="translate(0.000000,225.000000) scale(0.100000,-0.100000)"
fill="#000000" stroke="none">
<path d="M936 2134 c-417 -83 -735 -394 -821 -806 -20 -91 -20 -315 0 -406
101 -481 519 -822 1010 -822 576 0 1035 454 1035 1025 0 496 -359 925 -845
1010 -106 18 -285 18 -379 -1z m-273 -385 c31 -39 26 -95 -14 -131 -62 -58
-159 -12 -159 76 0 31 43 84 73 88 34 6 80 -10 100 -33z m891 -269 c62 -24
125 -80 158 -142 22 -41 23 -54 26 -310 l3 -268 -75 0 -76 0 0 227 c0 206 -2
230 -20 268 -36 74 -111 109 -204 95 -56 -8 -58 -5 -54 71 3 52 4 54 38 66 55
19 143 15 204 -7z m-884 -235 c0 -258 2 -270 60 -319 46 -38 101 -52 161 -40
l49 11 0 -68 0 -67 -36 -12 c-61 -20 -183 -8 -236 23 -56 32 -104 86 -132 146
-19 42 -21 67 -24 304 l-3 257 80 0 81 0 0 -235z m530 -125 l0 -360 -75 0 -75
0 0 360 0 360 75 0 75 0 0 -360z m540 -505 c59 -59 14 -160 -71 -160 -34 0
-46 6 -70 33 -35 39 -37 79 -8 116 41 52 103 56 149 11z"/>
</g>
</svg>
